<?xml version="1.0" encoding="UTF-8" standalone="no" ?>
<!DOCTYPE svg PUBLIC "-//W3C//DTD SVG 1.1//EN" "http://www.w3.org/Graphics/SVG/1.1/DTD/svg11.dtd">
<svg xmlns="http://www.w3.org/2000/svg" xmlns:xlink="http://www.w3.org/1999/xlink" version="1.1" width="512" height="512" viewBox="0 0 575 575" xml:space="preserve">
<desc>Created with Fabric.js 5.3.0</desc>
<defs>
</defs>
<g transform="matrix(0.9518137255 0 0 1 521.2501814575 64.0886243704)" id="AByIrC6wAUP82sTRsosdF"  >
<path style="stroke: rgb(0,0,0); stroke-width: 1; stroke-dasharray: none; stroke-linecap: butt; stroke-dashoffset: 0; stroke-linejoin: miter; stroke-miterlimit: 4; fill: rgb(255,255,255); fill-opacity: 0; fill-rule: nonzero; opacity: 1;" vector-effect="non-scaling-stroke"  transform=" translate(0, 0)" d="M 0 0" stroke-linecap="round" />
</g>
<g transform="matrix(1 0 0 1.0573529412 264.7356960064 305.3386243704)" id="ZipI9fq2HbeXC15pm5gmI"  >
<path style="stroke: rgb(0,0,0); stroke-width: 1; stroke-dasharray: none; stroke-linecap: butt; stroke-dashoffset: 0; stroke-linejoin: miter; stroke-miterlimit: 4; fill: rgb(172,130,88); fill-rule: nonzero; opacity: 1;" vector-effect="non-scaling-stroke"  transform=" translate(0, 0)" d="M -170 -170 L -170 170 L 170 170 L 170 -170 z" stroke-linecap="round" />
</g>
<g transform="matrix(1 0 0 1 435.2356960064 293.3281031545)" id="Tk0cFPS2msiiyh7eyikNW"  >
<path style="stroke: rgb(0,0,0); stroke-width: 1; stroke-dasharray: none; stroke-linecap: butt; stroke-dashoffset: 0; stroke-linejoin: miter; stroke-miterlimit: 4; fill: rgb(154,190,108); fill-rule: nonzero; opacity: 1;" vector-effect="non-scaling-stroke"  transform=" translate(0, 0)" d="M 0 -168.73948 L 0 168.73948" stroke-linecap="round" />
</g>
<g transform="matrix(1 0 0 1 435.2356960064 384.5886243704)" id="2qPYNIBr4ii3rg-dTI0DR"  >
<path style="stroke: rgb(0,0,0); stroke-width: 1; stroke-dasharray: none; stroke-linecap: butt; stroke-dashoffset: 0; stroke-linejoin: miter; stroke-miterlimit: 4; fill: rgb(43,206,15); fill-rule: nonzero; opacity: 1;" vector-effect="non-scaling-stroke"  transform=" translate(0, 0)" d="M 0 0" stroke-linecap="round" />
</g>
<g transform="matrix(1 0 0 1 278.1149772091 184.5886243704)" id="5sln1VQkHcMpnv485HM56"  >
<path style="stroke: rgb(0,0,0); stroke-width: 1; stroke-dasharray: none; stroke-linecap: butt; stroke-dashoffset: 0; stroke-linejoin: miter; stroke-miterlimit: 4; fill: rgb(241,97,35); fill-rule: nonzero; opacity: 1;" vector-effect="non-scaling-stroke"  transform=" translate(0, 0)" d="M 0 0" stroke-linecap="round" />
</g>
<g transform="matrix(1 0 0 1 275.2356960064 184.5886243704)" id="F4VEjB5nvMGPv_33vkvRm"  >
<path style="stroke: rgb(0,0,0); stroke-width: 1; stroke-dasharray: none; stroke-linecap: butt; stroke-dashoffset: 0; stroke-linejoin: miter; stroke-miterlimit: 4; fill: rgb(95,2,177); fill-rule: nonzero; opacity: 1;" vector-effect="non-scaling-stroke"  transform=" translate(0, 0)" d="M 0 0" stroke-linecap="round" />
</g>
<g transform="matrix(1 0 0 1 355.2356960064 184.5886243704)" id="vvUNmGONWDF0wVMXbGqeW"  >
<path style="stroke: rgb(0,0,0); stroke-width: 1; stroke-dasharray: none; stroke-linecap: butt; stroke-dashoffset: 0; stroke-linejoin: miter; stroke-miterlimit: 4; fill: rgb(225,165,45); fill-rule: nonzero; opacity: 1;" vector-effect="non-scaling-stroke"  transform=" translate(0, 0)" d="M -80 0 L 80 0" stroke-linecap="round" />
</g>
<g transform="matrix(1 0 0 1 355.2356960064 244.5886243704)" id="jmCX9VIlsox4mCsof56Qx"  >
<path style="stroke: rgb(0,0,0); stroke-width: 1; stroke-dasharray: none; stroke-linecap: butt; stroke-dashoffset: 0; stroke-linejoin: miter; stroke-miterlimit: 4; fill: rgb(119,96,196); fill-rule: nonzero; opacity: 1;" vector-effect="non-scaling-stroke"  transform=" translate(0, 0)" d="M -80 0 L 80 0" stroke-linecap="round" />
</g>
<g transform="matrix(1 0 0 1 355.2356960064 304.5886243704)" id="1sAb_FdP_HhIK7ie32uOs"  >
<path style="stroke: rgb(0,0,0); stroke-width: 1; stroke-dasharray: none; stroke-linecap: butt; stroke-dashoffset: 0; stroke-linejoin: miter; stroke-miterlimit: 4; fill: rgb(188,52,226); fill-rule: nonzero; opacity: 1;" vector-effect="non-scaling-stroke"  transform=" translate(0, 0)" d="M -80 0 L 80 0" stroke-linecap="round" />
</g>
<g transform="matrix(1 0 0 1 355.2356960064 364.5886243704)" id="qPgIiLi4Qeofs4SctlVOG"  >
<path style="stroke: rgb(0,0,0); stroke-width: 1; stroke-dasharray: none; stroke-linecap: butt; stroke-dashoffset: 0; stroke-linejoin: miter; stroke-miterlimit: 4; fill: rgb(215,232,73); fill-rule: nonzero; opacity: 1;" vector-effect="non-scaling-stroke"  transform=" translate(0, 0)" d="M -80 0 L 80 0" stroke-linecap="round" />
</g>
<g transform="matrix(1 0 0 1 355.2356960064 424.5886243704)" id="RIejZ3GVLMk2Sx49ediv2"  >
<path style="stroke: rgb(0,0,0); stroke-width: 1; stroke-dasharray: none; stroke-linecap: butt; stroke-dashoffset: 0; stroke-linejoin: miter; stroke-miterlimit: 4; fill: rgb(85,234,12); fill-rule: nonzero; opacity: 1;" vector-effect="non-scaling-stroke"  transform=" translate(0, 0)" d="M -80 0 L 80 0" stroke-linecap="round" />
</g>
<g transform="matrix(1 0 0 1 275.2356960064 304.5886243704)" id="7wjgj_WFkpyBiLJsQX7Iz"  >
<path style="stroke: rgb(0,0,0); stroke-width: 1; stroke-dasharray: none; stroke-linecap: butt; stroke-dashoffset: 0; stroke-linejoin: miter; stroke-miterlimit: 4; fill: rgb(20,59,10); fill-rule: nonzero; opacity: 1;" vector-effect="non-scaling-stroke"  transform=" translate(0, 0)" d="M 0 180 L 0 -180" stroke-linecap="round" />
</g>
<g transform="matrix(1 0 0 1 455.2356960064 284.5886243704)" id="m69cBQD4-rr_rNAWrfDNY"  >
<path style="stroke: rgb(0,0,0); stroke-width: 1; stroke-dasharray: none; stroke-linecap: butt; stroke-dashoffset: 0; stroke-linejoin: miter; stroke-miterlimit: 4; fill: rgb(255,190,124); fill-rule: nonzero; opacity: 1;" vector-effect="non-scaling-stroke"  transform=" translate(0, 0)" d="M -20 -160 L -12.33006 -167.66994 L 20.000000000000004 -200 L 20.000000000000004 160 L -19.999999999999996 200" stroke-linecap="round" />
</g>
<g transform="matrix(1 0 0 1 435.2356960064 124.5886243704)" id="02HJ3NlW4UTzb9fFBJFHc"  >
<path style="stroke: rgb(0,0,0); stroke-width: 1; stroke-dasharray: none; stroke-linecap: butt; stroke-dashoffset: 0; stroke-linejoin: miter; stroke-miterlimit: 4; fill: rgb(0,0,0); fill-rule: nonzero; opacity: 1;" vector-effect="non-scaling-stroke"  transform=" translate(0, 0)" d="M 0 0" stroke-linecap="round" />
</g>
<g transform="matrix(1 0 0 1 284.7356960064 105.0886243704)" id="W3ooaV4CNXrfORjUiVt5z"  >
<path style="stroke: rgb(0,0,0); stroke-width: 1; stroke-dasharray: none; stroke-linecap: butt; stroke-dashoffset: 0; stroke-linejoin: miter; stroke-miterlimit: 4; fill: rgb(255,190,124); fill-rule: nonzero; opacity: 1;" vector-effect="non-scaling-stroke"  transform=" translate(0, 0)" d="M 190 -20 L -150 -20 L -190 20 L 150 20 z" stroke-linecap="round" />
</g>
<g transform="matrix(1 0 0 1 94.2356960064 125.0886243704)" id="D7E08cOu6Xuk-Elb-4cOV"  >
<path style="stroke: rgb(0,0,0); stroke-width: 1; stroke-dasharray: none; stroke-linecap: butt; stroke-dashoffset: 0; stroke-linejoin: miter; stroke-miterlimit: 4; fill: rgb(255,255,255); fill-opacity: 0; fill-rule: nonzero; opacity: 1;" vector-effect="non-scaling-stroke"  transform=" translate(0, 0)" d="M 0 0" stroke-linecap="round" />
</g>
<g transform="matrix(1 0 0 1 184.7356960064 305.0886243704)" id="p1CLxGfrnmrdgf_72l_5N"  >
<path style="stroke: rgb(0,0,0); stroke-width: 1; stroke-dasharray: none; stroke-linecap: butt; stroke-dashoffset: 0; stroke-linejoin: miter; stroke-miterlimit: 4; fill: rgb(255,190,124); fill-rule: nonzero; opacity: 1;" vector-effect="non-scaling-stroke"  transform=" translate(0, 0)" d="M -90 -180 L 90 -180 L 90 180 L -90 180 z" stroke-linecap="round" />
</g>
<g transform="matrix(0.7663091964 0 0 0.7663091964 235.2356960064 304.5886243704)" id="gLjej1rH3hkhbQ6-Oa3wb"  >
<path style="stroke: rgb(205,62,133); stroke-width: 0; stroke-dasharray: none; stroke-linecap: butt; stroke-dashoffset: 0; stroke-linejoin: miter; stroke-miterlimit: 4; fill: rgb(38,20,0); fill-rule: nonzero; opacity: 1;" vector-effect="non-scaling-stroke"  transform=" translate(0, 0)" d="M 0 -22.22222 C 12.26667 -22.22222 22.22222 -12.26666 22.22222 0 C 22.22222 12.26667 12.26666 22.22222 0 22.22222 C -12.26667 22.22222 -22.22222 12.26666 -22.22222 0 C -22.22222 -12.26667 -12.26666 -22.22222 0 -22.22222 z" stroke-linecap="round" />
</g>
</svg>